<mxfile host="app.diagrams.net" modified="2023-06-14T15:55:34.707Z" agent="Mozilla/5.0 (Windows NT 10.0; Win64; x64) AppleWebKit/537.36 (KHTML, like Gecko) Chrome/112.0.0.0 Safari/537.36 OPR/98.0.0.0" etag="Ba0mhxW69QTkoShyQrej" version="21.3.6" type="device">
  <diagram name="Page-1" id="2YBvvXClWsGukQMizWep">
    <mxGraphModel dx="2483" dy="1178" grid="1" gridSize="10" guides="1" tooltips="1" connect="1" arrows="1" fold="1" page="1" pageScale="1.5" pageWidth="850" pageHeight="1100" math="0" shadow="0">
      <root>
        <mxCell id="0" />
        <mxCell id="1" parent="0" />
        <mxCell id="qIZ9T9jj4MtrLWOA1rcY-60" value="" style="rounded=0;whiteSpace=wrap;html=1;movable=1;resizable=1;rotatable=1;deletable=1;editable=1;locked=0;connectable=1;" vertex="1" parent="1">
          <mxGeometry x="327.5" y="1400" width="521.25" height="500" as="geometry" />
        </mxCell>
        <mxCell id="aM9ryv3xv72pqoxQDRHE-5" value="Tela Login/Cadastro" style="shape=umlLifeline;perimeter=lifelinePerimeter;whiteSpace=wrap;html=1;container=0;dropTarget=0;collapsible=0;recursiveResize=0;outlineConnect=0;portConstraint=eastwest;newEdgeStyle={&quot;edgeStyle&quot;:&quot;elbowEdgeStyle&quot;,&quot;elbow&quot;:&quot;vertical&quot;,&quot;curved&quot;:0,&quot;rounded&quot;:0};" parent="1" vertex="1">
          <mxGeometry x="460" y="90" width="100" height="790" as="geometry" />
        </mxCell>
        <mxCell id="qIZ9T9jj4MtrLWOA1rcY-2" value="Usuário" style="shape=umlActor;verticalLabelPosition=bottom;verticalAlign=top;html=1;outlineConnect=0;" vertex="1" parent="1">
          <mxGeometry x="360" y="70" width="30" height="60" as="geometry" />
        </mxCell>
        <mxCell id="qIZ9T9jj4MtrLWOA1rcY-4" value="" style="endArrow=none;dashed=1;html=1;rounded=0;" edge="1" parent="1" source="qIZ9T9jj4MtrLWOA1rcY-9">
          <mxGeometry width="50" height="50" relative="1" as="geometry">
            <mxPoint x="375" y="380" as="sourcePoint" />
            <mxPoint x="375" y="160" as="targetPoint" />
          </mxGeometry>
        </mxCell>
        <mxCell id="qIZ9T9jj4MtrLWOA1rcY-5" value="Tela de Jogo" style="shape=umlLifeline;perimeter=lifelinePerimeter;whiteSpace=wrap;html=1;container=0;dropTarget=0;collapsible=0;recursiveResize=0;outlineConnect=0;portConstraint=eastwest;newEdgeStyle={&quot;edgeStyle&quot;:&quot;elbowEdgeStyle&quot;,&quot;elbow&quot;:&quot;vertical&quot;,&quot;curved&quot;:0,&quot;rounded&quot;:0};" vertex="1" parent="1">
          <mxGeometry x="620" y="90" width="100" height="1840" as="geometry" />
        </mxCell>
        <mxCell id="qIZ9T9jj4MtrLWOA1rcY-6" value="banco de dados&lt;br&gt;" style="shape=umlLifeline;perimeter=lifelinePerimeter;whiteSpace=wrap;html=1;container=0;dropTarget=0;collapsible=0;recursiveResize=0;outlineConnect=0;portConstraint=eastwest;newEdgeStyle={&quot;edgeStyle&quot;:&quot;elbowEdgeStyle&quot;,&quot;elbow&quot;:&quot;vertical&quot;,&quot;curved&quot;:0,&quot;rounded&quot;:0};" vertex="1" parent="1">
          <mxGeometry x="770" y="90" width="100" height="1610" as="geometry" />
        </mxCell>
        <mxCell id="qIZ9T9jj4MtrLWOA1rcY-10" value="" style="endArrow=none;dashed=1;html=1;rounded=0;" edge="1" parent="1" target="qIZ9T9jj4MtrLWOA1rcY-9">
          <mxGeometry width="50" height="50" relative="1" as="geometry">
            <mxPoint x="375" y="550" as="sourcePoint" />
            <mxPoint x="375" y="160" as="targetPoint" />
          </mxGeometry>
        </mxCell>
        <mxCell id="qIZ9T9jj4MtrLWOA1rcY-9" value="" style="rounded=0;whiteSpace=wrap;html=1;rotation=-90;" vertex="1" parent="1">
          <mxGeometry x="342.5" y="202.5" width="65" height="10" as="geometry" />
        </mxCell>
        <mxCell id="qIZ9T9jj4MtrLWOA1rcY-12" value="" style="endArrow=classic;html=1;rounded=0;exitX=0.5;exitY=1;exitDx=0;exitDy=0;" edge="1" parent="1" source="qIZ9T9jj4MtrLWOA1rcY-123" target="aM9ryv3xv72pqoxQDRHE-5">
          <mxGeometry width="50" height="50" relative="1" as="geometry">
            <mxPoint x="407.5" y="212.5" as="sourcePoint" />
            <mxPoint x="457.5" y="162.5" as="targetPoint" />
          </mxGeometry>
        </mxCell>
        <mxCell id="qIZ9T9jj4MtrLWOA1rcY-13" value="&lt;font style=&quot;font-size: 9px;&quot;&gt;Criar conta&lt;br&gt;&lt;/font&gt;" style="edgeLabel;html=1;align=center;verticalAlign=middle;resizable=0;points=[];" vertex="1" connectable="0" parent="qIZ9T9jj4MtrLWOA1rcY-12">
          <mxGeometry x="0.2973" y="-4" relative="1" as="geometry">
            <mxPoint x="-121" y="-21" as="offset" />
          </mxGeometry>
        </mxCell>
        <mxCell id="qIZ9T9jj4MtrLWOA1rcY-16" style="edgeStyle=orthogonalEdgeStyle;rounded=0;orthogonalLoop=1;jettySize=auto;html=1;exitX=0.599;exitY=0.991;exitDx=0;exitDy=0;exitPerimeter=0;" edge="1" parent="1" source="qIZ9T9jj4MtrLWOA1rcY-15" target="qIZ9T9jj4MtrLWOA1rcY-6">
          <mxGeometry relative="1" as="geometry">
            <mxPoint x="800" y="245" as="targetPoint" />
            <Array as="points">
              <mxPoint x="515" y="240" />
            </Array>
          </mxGeometry>
        </mxCell>
        <mxCell id="qIZ9T9jj4MtrLWOA1rcY-17" value="&lt;font style=&quot;font-size: 9px;&quot;&gt;Armazena&amp;nbsp;&lt;br&gt;informações&lt;/font&gt;" style="edgeLabel;html=1;align=center;verticalAlign=middle;resizable=0;points=[];" vertex="1" connectable="0" parent="qIZ9T9jj4MtrLWOA1rcY-16">
          <mxGeometry x="-0.3103" y="-4" relative="1" as="geometry">
            <mxPoint y="-19" as="offset" />
          </mxGeometry>
        </mxCell>
        <mxCell id="qIZ9T9jj4MtrLWOA1rcY-15" value="" style="rounded=0;whiteSpace=wrap;html=1;rotation=-90;" vertex="1" parent="1">
          <mxGeometry x="477.5" y="240" width="65" height="10" as="geometry" />
        </mxCell>
        <mxCell id="qIZ9T9jj4MtrLWOA1rcY-20" value="&lt;font style=&quot;font-size: 9px;&quot;&gt;Retorna&amp;nbsp;&lt;br&gt;cadastro&lt;/font&gt;" style="html=1;verticalAlign=bottom;endArrow=open;dashed=1;endSize=8;edgeStyle=elbowEdgeStyle;elbow=vertical;curved=0;rounded=0;" edge="1" parent="1" target="aM9ryv3xv72pqoxQDRHE-5">
          <mxGeometry x="-0.5483" y="-10" relative="1" as="geometry">
            <mxPoint x="650" y="300" as="targetPoint" />
            <Array as="points">
              <mxPoint x="820" y="300" />
            </Array>
            <mxPoint x="820" y="300" as="sourcePoint" />
            <mxPoint as="offset" />
          </mxGeometry>
        </mxCell>
        <mxCell id="qIZ9T9jj4MtrLWOA1rcY-21" value="" style="rounded=0;whiteSpace=wrap;html=1;rotation=-90;" vertex="1" parent="1">
          <mxGeometry x="788.75" y="270" width="62.5" height="10" as="geometry" />
        </mxCell>
        <mxCell id="qIZ9T9jj4MtrLWOA1rcY-23" value="" style="rounded=0;whiteSpace=wrap;html=1;rotation=-90;" vertex="1" parent="1">
          <mxGeometry x="477.5" y="330" width="65" height="10" as="geometry" />
        </mxCell>
        <mxCell id="qIZ9T9jj4MtrLWOA1rcY-25" value="&lt;font style=&quot;font-size: 9px;&quot;&gt;Retorna Login&lt;/font&gt;" style="html=1;verticalAlign=bottom;endArrow=open;dashed=1;endSize=8;edgeStyle=elbowEdgeStyle;elbow=vertical;curved=0;rounded=0;exitX=0.582;exitY=-0.104;exitDx=0;exitDy=0;exitPerimeter=0;" edge="1" parent="1" source="qIZ9T9jj4MtrLWOA1rcY-23">
          <mxGeometry x="0.0045" relative="1" as="geometry">
            <mxPoint x="380" y="330" as="targetPoint" />
            <Array as="points">
              <mxPoint x="487.5" y="330.33" />
            </Array>
            <mxPoint x="465" y="330" as="sourcePoint" />
            <mxPoint as="offset" />
          </mxGeometry>
        </mxCell>
        <mxCell id="qIZ9T9jj4MtrLWOA1rcY-26" value="" style="endArrow=classic;html=1;rounded=0;exitX=0.5;exitY=1;exitDx=0;exitDy=0;" edge="1" parent="1" source="qIZ9T9jj4MtrLWOA1rcY-27" target="aM9ryv3xv72pqoxQDRHE-5">
          <mxGeometry width="50" height="50" relative="1" as="geometry">
            <mxPoint x="407.5" y="430" as="sourcePoint" />
            <mxPoint x="457.5" y="380" as="targetPoint" />
          </mxGeometry>
        </mxCell>
        <mxCell id="qIZ9T9jj4MtrLWOA1rcY-29" value="&lt;font style=&quot;font-size: 9px;&quot;&gt;Faz login&lt;/font&gt;" style="edgeLabel;html=1;align=center;verticalAlign=middle;resizable=0;points=[];" vertex="1" connectable="0" parent="qIZ9T9jj4MtrLWOA1rcY-26">
          <mxGeometry x="-0.4022" relative="1" as="geometry">
            <mxPoint x="21" y="-15" as="offset" />
          </mxGeometry>
        </mxCell>
        <mxCell id="qIZ9T9jj4MtrLWOA1rcY-28" value="" style="endArrow=none;dashed=1;html=1;rounded=0;" edge="1" parent="1">
          <mxGeometry width="50" height="50" relative="1" as="geometry">
            <mxPoint x="375" y="1150" as="sourcePoint" />
            <mxPoint x="375" y="550" as="targetPoint" />
          </mxGeometry>
        </mxCell>
        <mxCell id="qIZ9T9jj4MtrLWOA1rcY-27" value="" style="rounded=0;whiteSpace=wrap;html=1;rotation=-90;" vertex="1" parent="1">
          <mxGeometry x="342.5" y="400" width="65" height="10" as="geometry" />
        </mxCell>
        <mxCell id="qIZ9T9jj4MtrLWOA1rcY-31" style="edgeStyle=orthogonalEdgeStyle;rounded=0;orthogonalLoop=1;jettySize=auto;html=1;exitX=0.553;exitY=1.049;exitDx=0;exitDy=0;exitPerimeter=0;" edge="1" parent="1" source="qIZ9T9jj4MtrLWOA1rcY-30">
          <mxGeometry relative="1" as="geometry">
            <mxPoint x="511.5" y="567.5" as="sourcePoint" />
            <mxPoint x="816" y="450" as="targetPoint" />
            <Array as="points">
              <mxPoint x="516" y="450" />
            </Array>
          </mxGeometry>
        </mxCell>
        <mxCell id="qIZ9T9jj4MtrLWOA1rcY-136" value="&lt;font style=&quot;font-size: 9px;&quot;&gt;Consulta login&lt;/font&gt;" style="edgeLabel;html=1;align=center;verticalAlign=middle;resizable=0;points=[];" vertex="1" connectable="0" parent="qIZ9T9jj4MtrLWOA1rcY-31">
          <mxGeometry x="-0.3008" y="2" relative="1" as="geometry">
            <mxPoint x="-31" y="-18" as="offset" />
          </mxGeometry>
        </mxCell>
        <mxCell id="qIZ9T9jj4MtrLWOA1rcY-33" value="&lt;font style=&quot;font-size: 9px;&quot;&gt;Retorna Login&lt;/font&gt;" style="html=1;verticalAlign=bottom;endArrow=open;dashed=1;endSize=8;edgeStyle=elbowEdgeStyle;elbow=vertical;curved=0;rounded=0;" edge="1" parent="1">
          <mxGeometry x="-0.5509" y="-10" relative="1" as="geometry">
            <mxPoint x="521.5" y="510.5" as="targetPoint" />
            <Array as="points">
              <mxPoint x="809" y="510" />
            </Array>
            <mxPoint x="818.5" y="510" as="sourcePoint" />
            <mxPoint as="offset" />
          </mxGeometry>
        </mxCell>
        <mxCell id="qIZ9T9jj4MtrLWOA1rcY-39" style="edgeStyle=orthogonalEdgeStyle;rounded=0;orthogonalLoop=1;jettySize=auto;html=1;" edge="1" parent="1" source="qIZ9T9jj4MtrLWOA1rcY-34">
          <mxGeometry relative="1" as="geometry">
            <mxPoint x="670" y="915" as="targetPoint" />
            <Array as="points">
              <mxPoint x="670" y="915" />
            </Array>
          </mxGeometry>
        </mxCell>
        <mxCell id="qIZ9T9jj4MtrLWOA1rcY-40" value="&lt;font style=&quot;font-size: 9px;&quot;&gt;Abrir tela de Jogo&lt;/font&gt;" style="edgeLabel;html=1;align=center;verticalAlign=middle;resizable=0;points=[];" vertex="1" connectable="0" parent="qIZ9T9jj4MtrLWOA1rcY-39">
          <mxGeometry x="0.5546" y="1" relative="1" as="geometry">
            <mxPoint x="-45" y="-14" as="offset" />
          </mxGeometry>
        </mxCell>
        <mxCell id="qIZ9T9jj4MtrLWOA1rcY-34" value="" style="rounded=0;whiteSpace=wrap;html=1;rotation=-90;" vertex="1" parent="1">
          <mxGeometry x="477.5" y="910" width="65" height="10" as="geometry" />
        </mxCell>
        <mxCell id="qIZ9T9jj4MtrLWOA1rcY-41" value="" style="rounded=0;whiteSpace=wrap;html=1;rotation=-90;" vertex="1" parent="1">
          <mxGeometry x="638" y="960" width="65" height="10" as="geometry" />
        </mxCell>
        <mxCell id="qIZ9T9jj4MtrLWOA1rcY-43" value="&lt;font style=&quot;font-size: 9px;&quot;&gt;Mostrar Tela de Sala&lt;/font&gt;" style="html=1;verticalAlign=bottom;endArrow=open;dashed=1;endSize=8;edgeStyle=elbowEdgeStyle;elbow=vertical;curved=0;rounded=0;exitX=0.46;exitY=0.467;exitDx=0;exitDy=0;exitPerimeter=0;" edge="1" parent="1" source="qIZ9T9jj4MtrLWOA1rcY-5">
          <mxGeometry x="-0.4515" y="-5" relative="1" as="geometry">
            <mxPoint x="378" y="960" as="targetPoint" />
            <Array as="points">
              <mxPoint x="520" y="960" />
            </Array>
            <mxPoint x="660.4099999999999" y="1166.9799999999998" as="sourcePoint" />
            <mxPoint as="offset" />
          </mxGeometry>
        </mxCell>
        <mxCell id="qIZ9T9jj4MtrLWOA1rcY-45" value="" style="endArrow=none;dashed=1;html=1;rounded=0;" edge="1" parent="1" source="qIZ9T9jj4MtrLWOA1rcY-82" target="qIZ9T9jj4MtrLWOA1rcY-44">
          <mxGeometry width="50" height="50" relative="1" as="geometry">
            <mxPoint x="372.5" y="1722.5" as="sourcePoint" />
            <mxPoint x="372.5" y="979.5" as="targetPoint" />
          </mxGeometry>
        </mxCell>
        <mxCell id="qIZ9T9jj4MtrLWOA1rcY-46" style="edgeStyle=orthogonalEdgeStyle;rounded=0;orthogonalLoop=1;jettySize=auto;html=1;exitX=0.573;exitY=1.018;exitDx=0;exitDy=0;exitPerimeter=0;" edge="1" parent="1" source="qIZ9T9jj4MtrLWOA1rcY-44">
          <mxGeometry relative="1" as="geometry">
            <mxPoint x="667" y="1217.5" as="targetPoint" />
            <Array as="points">
              <mxPoint x="380" y="1217" />
            </Array>
          </mxGeometry>
        </mxCell>
        <mxCell id="qIZ9T9jj4MtrLWOA1rcY-47" value="&lt;font style=&quot;font-size: 9px;&quot;&gt;Inserir Código da Sala&lt;/font&gt;" style="edgeLabel;html=1;align=center;verticalAlign=middle;resizable=0;points=[];" vertex="1" connectable="0" parent="qIZ9T9jj4MtrLWOA1rcY-46">
          <mxGeometry x="0.1901" y="-1" relative="1" as="geometry">
            <mxPoint x="-33" y="-16" as="offset" />
          </mxGeometry>
        </mxCell>
        <mxCell id="qIZ9T9jj4MtrLWOA1rcY-44" value="" style="rounded=0;whiteSpace=wrap;html=1;rotation=-90;" vertex="1" parent="1">
          <mxGeometry x="342.5" y="1215" width="65" height="10" as="geometry" />
        </mxCell>
        <mxCell id="qIZ9T9jj4MtrLWOA1rcY-50" style="edgeStyle=orthogonalEdgeStyle;rounded=0;orthogonalLoop=1;jettySize=auto;html=1;exitX=0.546;exitY=1.01;exitDx=0;exitDy=0;exitPerimeter=0;" edge="1" parent="1" source="qIZ9T9jj4MtrLWOA1rcY-48">
          <mxGeometry relative="1" as="geometry">
            <mxPoint x="810" y="1257" as="targetPoint" />
            <Array as="points">
              <mxPoint x="767" y="1257" />
            </Array>
          </mxGeometry>
        </mxCell>
        <mxCell id="qIZ9T9jj4MtrLWOA1rcY-51" value="&lt;font style=&quot;font-size: 9px;&quot;&gt;Consultar sala&lt;/font&gt;" style="edgeLabel;html=1;align=center;verticalAlign=middle;resizable=0;points=[];" vertex="1" connectable="0" parent="qIZ9T9jj4MtrLWOA1rcY-50">
          <mxGeometry x="-0.435" y="2" relative="1" as="geometry">
            <mxPoint x="34" y="-13" as="offset" />
          </mxGeometry>
        </mxCell>
        <mxCell id="qIZ9T9jj4MtrLWOA1rcY-48" value="" style="rounded=0;whiteSpace=wrap;html=1;rotation=-90;" vertex="1" parent="1">
          <mxGeometry x="637.5" y="1255" width="65" height="10" as="geometry" />
        </mxCell>
        <mxCell id="qIZ9T9jj4MtrLWOA1rcY-52" value="" style="rounded=0;whiteSpace=wrap;html=1;rotation=-90;" vertex="1" parent="1">
          <mxGeometry x="786.25" y="1312.5" width="65" height="10" as="geometry" />
        </mxCell>
        <mxCell id="qIZ9T9jj4MtrLWOA1rcY-56" value="&lt;font size=&quot;1&quot;&gt;Retorna Sala&lt;/font&gt;" style="html=1;verticalAlign=bottom;endArrow=open;dashed=1;endSize=8;edgeStyle=elbowEdgeStyle;elbow=vertical;curved=0;rounded=0;exitX=0.499;exitY=-0.173;exitDx=0;exitDy=0;exitPerimeter=0;" edge="1" parent="1" source="qIZ9T9jj4MtrLWOA1rcY-52">
          <mxGeometry x="-0.0734" y="-5" relative="1" as="geometry">
            <mxPoint x="670" y="1317" as="targetPoint" />
            <Array as="points">
              <mxPoint x="807.5" y="1317.28" />
            </Array>
            <mxPoint x="816.5" y="1317.28" as="sourcePoint" />
            <mxPoint as="offset" />
          </mxGeometry>
        </mxCell>
        <mxCell id="qIZ9T9jj4MtrLWOA1rcY-58" value="" style="rounded=0;whiteSpace=wrap;html=1;rotation=-90;" vertex="1" parent="1">
          <mxGeometry x="638" y="1352.5" width="65" height="10" as="geometry" />
        </mxCell>
        <mxCell id="qIZ9T9jj4MtrLWOA1rcY-59" value="&lt;font size=&quot;1&quot;&gt;Adiciona Jogador&lt;/font&gt;" style="html=1;verticalAlign=bottom;endArrow=open;dashed=1;endSize=8;edgeStyle=elbowEdgeStyle;elbow=vertical;curved=0;rounded=0;exitX=0.499;exitY=-0.173;exitDx=0;exitDy=0;exitPerimeter=0;" edge="1" parent="1">
          <mxGeometry x="-0.0734" y="-5" relative="1" as="geometry">
            <mxPoint x="377.5" y="1352.5" as="targetPoint" />
            <Array as="points">
              <mxPoint x="657.5" y="1352.5" />
            </Array>
            <mxPoint x="662.5" y="1352.72" as="sourcePoint" />
            <mxPoint as="offset" />
          </mxGeometry>
        </mxCell>
        <mxCell id="qIZ9T9jj4MtrLWOA1rcY-62" value="&lt;font style=&quot;font-size: 9px;&quot;&gt;LOOP&lt;/font&gt;" style="rounded=0;whiteSpace=wrap;html=1;" vertex="1" parent="1">
          <mxGeometry x="327.5" y="1400" width="40" height="20" as="geometry" />
        </mxCell>
        <mxCell id="qIZ9T9jj4MtrLWOA1rcY-73" style="edgeStyle=orthogonalEdgeStyle;rounded=0;orthogonalLoop=1;jettySize=auto;html=1;" edge="1" parent="1" source="qIZ9T9jj4MtrLWOA1rcY-72">
          <mxGeometry relative="1" as="geometry">
            <mxPoint x="817" y="1447.5" as="targetPoint" />
            <Array as="points">
              <mxPoint x="777.5" y="1447.5" />
              <mxPoint x="777.5" y="1447.5" />
            </Array>
          </mxGeometry>
        </mxCell>
        <mxCell id="qIZ9T9jj4MtrLWOA1rcY-74" value="&lt;font style=&quot;font-size: 9px;&quot;&gt;Consulta perguntas e monstros&lt;/font&gt;" style="edgeLabel;html=1;align=center;verticalAlign=middle;resizable=0;points=[];" vertex="1" connectable="0" parent="qIZ9T9jj4MtrLWOA1rcY-73">
          <mxGeometry x="0.086" relative="1" as="geometry">
            <mxPoint x="-3" y="-15" as="offset" />
          </mxGeometry>
        </mxCell>
        <mxCell id="qIZ9T9jj4MtrLWOA1rcY-72" value="" style="rounded=0;whiteSpace=wrap;html=1;rotation=-90;" vertex="1" parent="1">
          <mxGeometry x="638" y="1442.5" width="65" height="10" as="geometry" />
        </mxCell>
        <mxCell id="qIZ9T9jj4MtrLWOA1rcY-75" value="&lt;font style=&quot;font-size: 9px;&quot;&gt;Retorna perguntas e monstros&lt;/font&gt;" style="html=1;verticalAlign=bottom;endArrow=open;dashed=1;endSize=8;edgeStyle=elbowEdgeStyle;elbow=vertical;curved=0;rounded=0;exitX=0.499;exitY=-0.173;exitDx=0;exitDy=0;exitPerimeter=0;" edge="1" parent="1">
          <mxGeometry x="-0.0734" y="-5" relative="1" as="geometry">
            <mxPoint x="680" y="1507" as="targetPoint" />
            <Array as="points">
              <mxPoint x="807.5" y="1507.2399999999998" />
            </Array>
            <mxPoint x="812.5" y="1507.46" as="sourcePoint" />
            <mxPoint as="offset" />
          </mxGeometry>
        </mxCell>
        <mxCell id="qIZ9T9jj4MtrLWOA1rcY-76" value="" style="rounded=0;whiteSpace=wrap;html=1;rotation=-90;" vertex="1" parent="1">
          <mxGeometry x="786.25" y="1502.5" width="65" height="10" as="geometry" />
        </mxCell>
        <mxCell id="qIZ9T9jj4MtrLWOA1rcY-80" style="edgeStyle=orthogonalEdgeStyle;rounded=0;orthogonalLoop=1;jettySize=auto;html=1;" edge="1" parent="1" source="qIZ9T9jj4MtrLWOA1rcY-77">
          <mxGeometry relative="1" as="geometry">
            <mxPoint x="377.5" y="1557.5" as="targetPoint" />
          </mxGeometry>
        </mxCell>
        <mxCell id="qIZ9T9jj4MtrLWOA1rcY-81" value="&lt;font style=&quot;font-size: 9px;&quot;&gt;Enviar perguntas e monstro&lt;/font&gt;" style="edgeLabel;html=1;align=center;verticalAlign=middle;resizable=0;points=[];" vertex="1" connectable="0" parent="qIZ9T9jj4MtrLWOA1rcY-80">
          <mxGeometry x="0.2186" y="-3" relative="1" as="geometry">
            <mxPoint x="28" y="-12" as="offset" />
          </mxGeometry>
        </mxCell>
        <mxCell id="qIZ9T9jj4MtrLWOA1rcY-77" value="" style="rounded=0;whiteSpace=wrap;html=1;rotation=-90;" vertex="1" parent="1">
          <mxGeometry x="638" y="1552.5" width="65" height="10" as="geometry" />
        </mxCell>
        <mxCell id="qIZ9T9jj4MtrLWOA1rcY-83" value="" style="endArrow=none;dashed=1;html=1;rounded=0;" edge="1" parent="1" source="qIZ9T9jj4MtrLWOA1rcY-102" target="qIZ9T9jj4MtrLWOA1rcY-82">
          <mxGeometry width="50" height="50" relative="1" as="geometry">
            <mxPoint x="372.5" y="1982.7150012600807" as="sourcePoint" />
            <mxPoint x="372.5" y="1250.5" as="targetPoint" />
          </mxGeometry>
        </mxCell>
        <mxCell id="qIZ9T9jj4MtrLWOA1rcY-84" style="edgeStyle=orthogonalEdgeStyle;rounded=0;orthogonalLoop=1;jettySize=auto;html=1;" edge="1" parent="1" source="qIZ9T9jj4MtrLWOA1rcY-82">
          <mxGeometry relative="1" as="geometry">
            <mxPoint x="670" y="1627" as="targetPoint" />
            <Array as="points">
              <mxPoint x="519" y="1627" />
              <mxPoint x="620" y="1627" />
            </Array>
          </mxGeometry>
        </mxCell>
        <mxCell id="qIZ9T9jj4MtrLWOA1rcY-85" value="&lt;font style=&quot;font-size: 9px;&quot;&gt;Envia Resposta&lt;/font&gt;" style="edgeLabel;html=1;align=center;verticalAlign=middle;resizable=0;points=[];" vertex="1" connectable="0" parent="qIZ9T9jj4MtrLWOA1rcY-84">
          <mxGeometry x="0.2215" relative="1" as="geometry">
            <mxPoint x="-31" y="-15" as="offset" />
          </mxGeometry>
        </mxCell>
        <mxCell id="qIZ9T9jj4MtrLWOA1rcY-82" value="" style="rounded=0;whiteSpace=wrap;html=1;rotation=-90;" vertex="1" parent="1">
          <mxGeometry x="340" y="1622.5" width="65" height="10" as="geometry" />
        </mxCell>
        <mxCell id="qIZ9T9jj4MtrLWOA1rcY-86" value="" style="rounded=0;whiteSpace=wrap;html=1;rotation=-90;" vertex="1" parent="1">
          <mxGeometry x="637.5" y="1662.5" width="65" height="10" as="geometry" />
        </mxCell>
        <mxCell id="qIZ9T9jj4MtrLWOA1rcY-88" value="&lt;font style=&quot;font-size: 9px;&quot;&gt;Retorna Resposta&lt;/font&gt;" style="html=1;verticalAlign=bottom;endArrow=open;dashed=1;endSize=8;edgeStyle=elbowEdgeStyle;elbow=vertical;curved=0;rounded=0;exitX=0.499;exitY=-0.173;exitDx=0;exitDy=0;exitPerimeter=0;" edge="1" parent="1">
          <mxGeometry x="-0.0734" y="-5" relative="1" as="geometry">
            <mxPoint x="377.5" y="1677.5" as="targetPoint" />
            <Array as="points">
              <mxPoint x="655.63" y="1677.1999999999998" />
            </Array>
            <mxPoint x="660.63" y="1677.4199999999998" as="sourcePoint" />
            <mxPoint as="offset" />
          </mxGeometry>
        </mxCell>
        <mxCell id="qIZ9T9jj4MtrLWOA1rcY-92" style="edgeStyle=orthogonalEdgeStyle;rounded=0;orthogonalLoop=1;jettySize=auto;html=1;" edge="1" parent="1" source="qIZ9T9jj4MtrLWOA1rcY-91">
          <mxGeometry relative="1" as="geometry">
            <mxPoint x="817" y="1807.5" as="targetPoint" />
            <Array as="points">
              <mxPoint x="767.5" y="1807.5" />
              <mxPoint x="767.5" y="1807.5" />
            </Array>
          </mxGeometry>
        </mxCell>
        <mxCell id="qIZ9T9jj4MtrLWOA1rcY-93" value="&lt;font style=&quot;font-size: 9px;&quot;&gt;Atualizar pontuação&lt;/font&gt;" style="edgeLabel;html=1;align=center;verticalAlign=middle;resizable=0;points=[];" vertex="1" connectable="0" parent="qIZ9T9jj4MtrLWOA1rcY-92">
          <mxGeometry x="0.6164" y="1" relative="1" as="geometry">
            <mxPoint x="-44" y="-14" as="offset" />
          </mxGeometry>
        </mxCell>
        <mxCell id="qIZ9T9jj4MtrLWOA1rcY-91" value="" style="rounded=0;whiteSpace=wrap;html=1;rotation=-90;" vertex="1" parent="1">
          <mxGeometry x="637.5" y="1802.5" width="65" height="10" as="geometry" />
        </mxCell>
        <mxCell id="qIZ9T9jj4MtrLWOA1rcY-95" value="" style="rounded=0;whiteSpace=wrap;html=1;rotation=-90;" vertex="1" parent="1">
          <mxGeometry x="786.25" y="1852.5" width="65" height="10" as="geometry" />
        </mxCell>
        <mxCell id="qIZ9T9jj4MtrLWOA1rcY-98" value="&lt;font style=&quot;font-size: 9px;&quot;&gt;Retorna pontuação&lt;/font&gt;" style="html=1;verticalAlign=bottom;endArrow=open;dashed=1;endSize=8;edgeStyle=elbowEdgeStyle;elbow=vertical;curved=0;rounded=0;exitX=0.499;exitY=-0.173;exitDx=0;exitDy=0;exitPerimeter=0;" edge="1" parent="1">
          <mxGeometry x="-0.0734" y="-5" relative="1" as="geometry">
            <mxPoint x="670" y="1857" as="targetPoint" />
            <Array as="points">
              <mxPoint x="807.25" y="1857.1200000000001" />
            </Array>
            <mxPoint x="812.25" y="1857.34" as="sourcePoint" />
            <mxPoint as="offset" />
          </mxGeometry>
        </mxCell>
        <mxCell id="qIZ9T9jj4MtrLWOA1rcY-103" value="" style="endArrow=none;dashed=1;html=1;rounded=0;" edge="1" parent="1" target="qIZ9T9jj4MtrLWOA1rcY-102">
          <mxGeometry width="50" height="50" relative="1" as="geometry">
            <mxPoint x="373" y="1975" as="sourcePoint" />
            <mxPoint x="372.5" y="1535.5" as="targetPoint" />
          </mxGeometry>
        </mxCell>
        <mxCell id="qIZ9T9jj4MtrLWOA1rcY-104" style="edgeStyle=orthogonalEdgeStyle;rounded=0;orthogonalLoop=1;jettySize=auto;html=1;" edge="1" parent="1" source="qIZ9T9jj4MtrLWOA1rcY-102">
          <mxGeometry relative="1" as="geometry">
            <mxPoint x="667" y="1767.5" as="targetPoint" />
            <Array as="points">
              <mxPoint x="372.5" y="1762.5" />
            </Array>
          </mxGeometry>
        </mxCell>
        <mxCell id="qIZ9T9jj4MtrLWOA1rcY-106" value="&lt;font style=&quot;font-size: 9px;&quot;&gt;Derrota Inimigo&lt;/font&gt;" style="edgeLabel;html=1;align=center;verticalAlign=middle;resizable=0;points=[];" vertex="1" connectable="0" parent="qIZ9T9jj4MtrLWOA1rcY-104">
          <mxGeometry x="-0.0387" y="-1" relative="1" as="geometry">
            <mxPoint x="1" y="-16" as="offset" />
          </mxGeometry>
        </mxCell>
        <mxCell id="qIZ9T9jj4MtrLWOA1rcY-102" value="" style="rounded=0;whiteSpace=wrap;html=1;rotation=-90;" vertex="1" parent="1">
          <mxGeometry x="340" y="1762.5" width="65" height="10" as="geometry" />
        </mxCell>
        <mxCell id="qIZ9T9jj4MtrLWOA1rcY-117" value="" style="rounded=0;whiteSpace=wrap;html=1;rotation=-90;" vertex="1" parent="1">
          <mxGeometry x="637.5" y="1940" width="65" height="10" as="geometry" />
        </mxCell>
        <mxCell id="qIZ9T9jj4MtrLWOA1rcY-119" value="&lt;font style=&quot;font-size: 9px;&quot;&gt;Retorna Tela de vitória com pontuação&lt;/font&gt;" style="html=1;verticalAlign=bottom;endArrow=open;dashed=1;endSize=8;edgeStyle=elbowEdgeStyle;elbow=vertical;curved=0;rounded=0;exitX=0.499;exitY=-0.173;exitDx=0;exitDy=0;exitPerimeter=0;" edge="1" parent="1">
          <mxGeometry x="-0.0734" y="-5" relative="1" as="geometry">
            <mxPoint x="377.5" y="1957.5" as="targetPoint" />
            <Array as="points">
              <mxPoint x="658.5" y="1957.0700000000002" />
            </Array>
            <mxPoint x="663.5" y="1957.29" as="sourcePoint" />
            <mxPoint as="offset" />
          </mxGeometry>
        </mxCell>
        <mxCell id="qIZ9T9jj4MtrLWOA1rcY-120" value="Professor" style="shape=umlActor;verticalLabelPosition=bottom;verticalAlign=top;html=1;outlineConnect=0;" vertex="1" parent="1">
          <mxGeometry x="210" y="70" width="30" height="60" as="geometry" />
        </mxCell>
        <mxCell id="qIZ9T9jj4MtrLWOA1rcY-121" value="" style="endArrow=none;dashed=1;html=1;rounded=0;" edge="1" parent="1" source="qIZ9T9jj4MtrLWOA1rcY-123">
          <mxGeometry width="50" height="50" relative="1" as="geometry">
            <mxPoint x="220" y="870" as="sourcePoint" />
            <mxPoint x="225" y="150" as="targetPoint" />
          </mxGeometry>
        </mxCell>
        <mxCell id="qIZ9T9jj4MtrLWOA1rcY-124" value="" style="endArrow=none;dashed=1;html=1;rounded=0;" edge="1" parent="1" source="qIZ9T9jj4MtrLWOA1rcY-128" target="qIZ9T9jj4MtrLWOA1rcY-123">
          <mxGeometry width="50" height="50" relative="1" as="geometry">
            <mxPoint x="220" y="870" as="sourcePoint" />
            <mxPoint x="225" y="150" as="targetPoint" />
          </mxGeometry>
        </mxCell>
        <mxCell id="qIZ9T9jj4MtrLWOA1rcY-123" value="" style="rounded=0;whiteSpace=wrap;html=1;rotation=-90;" vertex="1" parent="1">
          <mxGeometry x="192.5" y="202.5" width="65" height="10" as="geometry" />
        </mxCell>
        <mxCell id="qIZ9T9jj4MtrLWOA1rcY-125" value="&lt;font style=&quot;font-size: 9px;&quot;&gt;Criar conta&lt;br&gt;&lt;/font&gt;" style="edgeLabel;html=1;align=center;verticalAlign=middle;resizable=0;points=[];" vertex="1" connectable="0" parent="1">
          <mxGeometry x="449.99931034482756" y="190" as="geometry" />
        </mxCell>
        <mxCell id="qIZ9T9jj4MtrLWOA1rcY-126" value="&lt;span style=&quot;color: rgb(0, 0, 0); font-family: Helvetica; font-size: 9px; font-style: normal; font-variant-ligatures: normal; font-variant-caps: normal; font-weight: 400; letter-spacing: normal; orphans: 2; text-align: center; text-indent: 0px; text-transform: none; widows: 2; word-spacing: 0px; -webkit-text-stroke-width: 0px; background-color: rgb(255, 255, 255); text-decoration-thickness: initial; text-decoration-style: initial; text-decoration-color: initial; float: none; display: inline !important;&quot;&gt;Retorna Login&lt;/span&gt;" style="html=1;verticalAlign=bottom;endArrow=open;dashed=1;endSize=8;edgeStyle=elbowEdgeStyle;elbow=vertical;curved=0;rounded=0;exitX=0.582;exitY=-0.104;exitDx=0;exitDy=0;exitPerimeter=0;" edge="1" parent="1">
          <mxGeometry x="0.4879" y="-10" relative="1" as="geometry">
            <mxPoint x="230" y="344.64" as="targetPoint" />
            <Array as="points">
              <mxPoint x="487.5" y="344.96999999999997" />
            </Array>
            <mxPoint x="504" y="344.64" as="sourcePoint" />
            <mxPoint as="offset" />
          </mxGeometry>
        </mxCell>
        <mxCell id="qIZ9T9jj4MtrLWOA1rcY-129" value="" style="endArrow=none;dashed=1;html=1;rounded=0;" edge="1" parent="1" source="qIZ9T9jj4MtrLWOA1rcY-140" target="qIZ9T9jj4MtrLWOA1rcY-128">
          <mxGeometry width="50" height="50" relative="1" as="geometry">
            <mxPoint x="225" y="670" as="sourcePoint" />
            <mxPoint x="225" y="240" as="targetPoint" />
          </mxGeometry>
        </mxCell>
        <mxCell id="qIZ9T9jj4MtrLWOA1rcY-130" style="edgeStyle=orthogonalEdgeStyle;rounded=0;orthogonalLoop=1;jettySize=auto;html=1;" edge="1" parent="1" source="qIZ9T9jj4MtrLWOA1rcY-128">
          <mxGeometry relative="1" as="geometry">
            <mxPoint x="510" y="405" as="targetPoint" />
          </mxGeometry>
        </mxCell>
        <mxCell id="qIZ9T9jj4MtrLWOA1rcY-128" value="" style="rounded=0;whiteSpace=wrap;html=1;rotation=-90;" vertex="1" parent="1">
          <mxGeometry x="192.5" y="400" width="65" height="10" as="geometry" />
        </mxCell>
        <mxCell id="qIZ9T9jj4MtrLWOA1rcY-131" value="&lt;font style=&quot;font-size: 9px;&quot;&gt;Faz login&lt;/font&gt;" style="edgeLabel;html=1;align=center;verticalAlign=middle;resizable=0;points=[];" vertex="1" connectable="0" parent="1">
          <mxGeometry x="289.9988888888889" y="390.0000000000001" as="geometry" />
        </mxCell>
        <mxCell id="qIZ9T9jj4MtrLWOA1rcY-30" value="" style="rounded=0;whiteSpace=wrap;html=1;rotation=-90;" vertex="1" parent="1">
          <mxGeometry x="477.5" y="450" width="65" height="10" as="geometry" />
        </mxCell>
        <mxCell id="qIZ9T9jj4MtrLWOA1rcY-138" style="edgeStyle=orthogonalEdgeStyle;rounded=0;orthogonalLoop=1;jettySize=auto;html=1;" edge="1" parent="1" source="qIZ9T9jj4MtrLWOA1rcY-137">
          <mxGeometry relative="1" as="geometry">
            <mxPoint x="230" y="565" as="targetPoint" />
            <Array as="points">
              <mxPoint x="230" y="565" />
            </Array>
          </mxGeometry>
        </mxCell>
        <mxCell id="qIZ9T9jj4MtrLWOA1rcY-139" value="&lt;font style=&quot;font-size: 9px;&quot;&gt;Mostra cadastro de Perguntas&lt;/font&gt;" style="edgeLabel;html=1;align=center;verticalAlign=middle;resizable=0;points=[];" vertex="1" connectable="0" parent="qIZ9T9jj4MtrLWOA1rcY-138">
          <mxGeometry x="0.2435" relative="1" as="geometry">
            <mxPoint x="109" y="-15" as="offset" />
          </mxGeometry>
        </mxCell>
        <mxCell id="qIZ9T9jj4MtrLWOA1rcY-137" value="" style="rounded=0;whiteSpace=wrap;html=1;rotation=-90;" vertex="1" parent="1">
          <mxGeometry x="477.5" y="560" width="65" height="10" as="geometry" />
        </mxCell>
        <mxCell id="qIZ9T9jj4MtrLWOA1rcY-142" value="" style="endArrow=none;dashed=1;html=1;rounded=0;" edge="1" parent="1" source="qIZ9T9jj4MtrLWOA1rcY-204" target="qIZ9T9jj4MtrLWOA1rcY-140">
          <mxGeometry width="50" height="50" relative="1" as="geometry">
            <mxPoint x="225" y="1090" as="sourcePoint" />
            <mxPoint x="225" y="438" as="targetPoint" />
          </mxGeometry>
        </mxCell>
        <mxCell id="qIZ9T9jj4MtrLWOA1rcY-143" style="edgeStyle=orthogonalEdgeStyle;rounded=0;orthogonalLoop=1;jettySize=auto;html=1;" edge="1" parent="1" source="qIZ9T9jj4MtrLWOA1rcY-140" target="aM9ryv3xv72pqoxQDRHE-5">
          <mxGeometry relative="1" as="geometry">
            <Array as="points">
              <mxPoint x="450" y="615" />
              <mxPoint x="450" y="615" />
            </Array>
          </mxGeometry>
        </mxCell>
        <mxCell id="qIZ9T9jj4MtrLWOA1rcY-144" value="&lt;font style=&quot;font-size: 9px;&quot;&gt;Cria perguntas&lt;/font&gt;" style="edgeLabel;html=1;align=center;verticalAlign=middle;resizable=0;points=[];" vertex="1" connectable="0" parent="qIZ9T9jj4MtrLWOA1rcY-143">
          <mxGeometry x="-0.2693" y="1" relative="1" as="geometry">
            <mxPoint x="-32" y="-14" as="offset" />
          </mxGeometry>
        </mxCell>
        <mxCell id="qIZ9T9jj4MtrLWOA1rcY-140" value="" style="rounded=0;whiteSpace=wrap;html=1;rotation=-90;" vertex="1" parent="1">
          <mxGeometry x="192.5" y="610" width="65" height="10" as="geometry" />
        </mxCell>
        <mxCell id="qIZ9T9jj4MtrLWOA1rcY-146" style="edgeStyle=orthogonalEdgeStyle;rounded=0;orthogonalLoop=1;jettySize=auto;html=1;" edge="1" parent="1" source="qIZ9T9jj4MtrLWOA1rcY-145" target="qIZ9T9jj4MtrLWOA1rcY-6">
          <mxGeometry relative="1" as="geometry">
            <Array as="points">
              <mxPoint x="750" y="655" />
              <mxPoint x="750" y="655" />
            </Array>
          </mxGeometry>
        </mxCell>
        <mxCell id="qIZ9T9jj4MtrLWOA1rcY-147" value="&lt;font style=&quot;font-size: 9px;&quot;&gt;Armazena Perguntas&lt;/font&gt;" style="edgeLabel;html=1;align=center;verticalAlign=middle;resizable=0;points=[];" vertex="1" connectable="0" parent="qIZ9T9jj4MtrLWOA1rcY-146">
          <mxGeometry x="-0.3862" y="3" relative="1" as="geometry">
            <mxPoint x="-20" y="-12" as="offset" />
          </mxGeometry>
        </mxCell>
        <mxCell id="qIZ9T9jj4MtrLWOA1rcY-145" value="" style="rounded=0;whiteSpace=wrap;html=1;rotation=-90;" vertex="1" parent="1">
          <mxGeometry x="477.5" y="650" width="65" height="10" as="geometry" />
        </mxCell>
        <mxCell id="qIZ9T9jj4MtrLWOA1rcY-148" value="" style="rounded=0;whiteSpace=wrap;html=1;rotation=-90;" vertex="1" parent="1">
          <mxGeometry x="788.75" y="720" width="62.5" height="10" as="geometry" />
        </mxCell>
        <mxCell id="qIZ9T9jj4MtrLWOA1rcY-151" value="&lt;font style=&quot;font-size: 9px;&quot;&gt;Retorna Status Perguntas&lt;/font&gt;" style="html=1;verticalAlign=bottom;endArrow=open;dashed=1;endSize=8;edgeStyle=elbowEdgeStyle;elbow=vertical;curved=0;rounded=0;exitX=0.74;exitY=-0.171;exitDx=0;exitDy=0;exitPerimeter=0;" edge="1" parent="1" source="qIZ9T9jj4MtrLWOA1rcY-148" target="aM9ryv3xv72pqoxQDRHE-5">
          <mxGeometry x="-0.5163" y="-10" relative="1" as="geometry">
            <mxPoint x="520" y="710" as="targetPoint" />
            <Array as="points">
              <mxPoint x="590" y="710" />
              <mxPoint x="781.25" y="720.63" />
            </Array>
            <mxPoint x="801.25" y="720" as="sourcePoint" />
            <mxPoint as="offset" />
          </mxGeometry>
        </mxCell>
        <mxCell id="qIZ9T9jj4MtrLWOA1rcY-154" value="" style="endArrow=none;dashed=1;html=1;rounded=0;" edge="1" parent="1" source="qIZ9T9jj4MtrLWOA1rcY-44">
          <mxGeometry width="50" height="50" relative="1" as="geometry">
            <mxPoint x="375" y="1187.5" as="sourcePoint" />
            <mxPoint x="375" y="1150" as="targetPoint" />
          </mxGeometry>
        </mxCell>
        <mxCell id="qIZ9T9jj4MtrLWOA1rcY-158" value="" style="rounded=0;whiteSpace=wrap;html=1;rotation=-90;" vertex="1" parent="1">
          <mxGeometry x="477.5" y="760" width="65" height="10" as="geometry" />
        </mxCell>
        <mxCell id="qIZ9T9jj4MtrLWOA1rcY-202" value="&lt;span style=&quot;color: rgb(0, 0, 0); font-family: Helvetica; font-size: 9px; font-style: normal; font-variant-ligatures: normal; font-variant-caps: normal; font-weight: 400; letter-spacing: normal; orphans: 2; text-align: center; text-indent: 0px; text-transform: none; widows: 2; word-spacing: 0px; -webkit-text-stroke-width: 0px; background-color: rgb(255, 255, 255); text-decoration-thickness: initial; text-decoration-style: initial; text-decoration-color: initial; float: none; display: inline !important;&quot;&gt;Retorna status Perguntas&lt;/span&gt;" style="html=1;verticalAlign=bottom;endArrow=open;dashed=1;endSize=8;edgeStyle=elbowEdgeStyle;elbow=vertical;curved=0;rounded=0;exitX=0.582;exitY=-0.104;exitDx=0;exitDy=0;exitPerimeter=0;" edge="1" parent="1">
          <mxGeometry x="-0.5316" y="-5" relative="1" as="geometry">
            <mxPoint x="230" y="764.52" as="targetPoint" />
            <Array as="points">
              <mxPoint x="487.5" y="764.8499999999999" />
            </Array>
            <mxPoint x="504" y="764.52" as="sourcePoint" />
            <mxPoint as="offset" />
          </mxGeometry>
        </mxCell>
        <mxCell id="qIZ9T9jj4MtrLWOA1rcY-205" value="" style="endArrow=none;dashed=1;html=1;rounded=0;" edge="1" parent="1" target="qIZ9T9jj4MtrLWOA1rcY-204">
          <mxGeometry width="50" height="50" relative="1" as="geometry">
            <mxPoint x="225" y="1180" as="sourcePoint" />
            <mxPoint x="225" y="648" as="targetPoint" />
          </mxGeometry>
        </mxCell>
        <mxCell id="qIZ9T9jj4MtrLWOA1rcY-206" style="edgeStyle=orthogonalEdgeStyle;rounded=0;orthogonalLoop=1;jettySize=auto;html=1;" edge="1" parent="1" source="qIZ9T9jj4MtrLWOA1rcY-204" target="qIZ9T9jj4MtrLWOA1rcY-5">
          <mxGeometry relative="1" as="geometry" />
        </mxCell>
        <mxCell id="qIZ9T9jj4MtrLWOA1rcY-207" value="&lt;font style=&quot;font-size: 9px;&quot;&gt;Criar Sala&lt;/font&gt;" style="edgeLabel;html=1;align=center;verticalAlign=middle;resizable=0;points=[];" vertex="1" connectable="0" parent="qIZ9T9jj4MtrLWOA1rcY-206">
          <mxGeometry x="-0.6802" y="1" relative="1" as="geometry">
            <mxPoint y="-9" as="offset" />
          </mxGeometry>
        </mxCell>
        <mxCell id="qIZ9T9jj4MtrLWOA1rcY-204" value="" style="rounded=0;whiteSpace=wrap;html=1;rotation=-90;" vertex="1" parent="1">
          <mxGeometry x="192.5" y="1005" width="65" height="10" as="geometry" />
        </mxCell>
        <mxCell id="qIZ9T9jj4MtrLWOA1rcY-209" style="edgeStyle=orthogonalEdgeStyle;rounded=0;orthogonalLoop=1;jettySize=auto;html=1;" edge="1" parent="1" source="qIZ9T9jj4MtrLWOA1rcY-208" target="qIZ9T9jj4MtrLWOA1rcY-6">
          <mxGeometry relative="1" as="geometry">
            <Array as="points">
              <mxPoint x="780" y="1055" />
              <mxPoint x="780" y="1055" />
            </Array>
          </mxGeometry>
        </mxCell>
        <mxCell id="qIZ9T9jj4MtrLWOA1rcY-210" value="&lt;font style=&quot;font-size: 9px;&quot;&gt;Armazenar Sala&lt;/font&gt;" style="edgeLabel;html=1;align=center;verticalAlign=middle;resizable=0;points=[];" vertex="1" connectable="0" parent="qIZ9T9jj4MtrLWOA1rcY-209">
          <mxGeometry x="-0.2391" y="-1" relative="1" as="geometry">
            <mxPoint x="20" y="-16" as="offset" />
          </mxGeometry>
        </mxCell>
        <mxCell id="qIZ9T9jj4MtrLWOA1rcY-208" value="" style="rounded=0;whiteSpace=wrap;html=1;rotation=-90;" vertex="1" parent="1">
          <mxGeometry x="638" y="1050" width="65" height="10" as="geometry" />
        </mxCell>
        <mxCell id="qIZ9T9jj4MtrLWOA1rcY-211" value="" style="rounded=0;whiteSpace=wrap;html=1;rotation=-90;" vertex="1" parent="1">
          <mxGeometry x="788.75" y="1120" width="65" height="10" as="geometry" />
        </mxCell>
        <mxCell id="qIZ9T9jj4MtrLWOA1rcY-212" value="&lt;font style=&quot;font-size: 9px;&quot;&gt;Retorna Status Sala&lt;/font&gt;" style="html=1;verticalAlign=bottom;endArrow=open;dashed=1;endSize=8;edgeStyle=elbowEdgeStyle;elbow=vertical;curved=0;rounded=0;exitX=0.499;exitY=-0.173;exitDx=0;exitDy=0;exitPerimeter=0;" edge="1" parent="1">
          <mxGeometry x="-0.0658" y="-5" relative="1" as="geometry">
            <mxPoint x="680" y="1124.6399999999999" as="targetPoint" />
            <Array as="points">
              <mxPoint x="807.5" y="1124.8799999999997" />
            </Array>
            <mxPoint x="812.5" y="1125.1" as="sourcePoint" />
            <mxPoint as="offset" />
          </mxGeometry>
        </mxCell>
        <mxCell id="qIZ9T9jj4MtrLWOA1rcY-213" value="" style="rounded=0;whiteSpace=wrap;html=1;rotation=-90;" vertex="1" parent="1">
          <mxGeometry x="638" y="1160" width="65" height="10" as="geometry" />
        </mxCell>
        <mxCell id="qIZ9T9jj4MtrLWOA1rcY-214" value="&lt;font style=&quot;font-size: 9px;&quot;&gt;Retorna Status Sala&lt;/font&gt;" style="html=1;verticalAlign=bottom;endArrow=open;dashed=1;endSize=8;edgeStyle=elbowEdgeStyle;elbow=vertical;curved=0;rounded=0;exitX=0.499;exitY=-0.173;exitDx=0;exitDy=0;exitPerimeter=0;" edge="1" parent="1">
          <mxGeometry x="-0.0658" y="-5" relative="1" as="geometry">
            <mxPoint x="230" y="1165" as="targetPoint" />
            <Array as="points">
              <mxPoint x="657.5" y="1164.7099999999996" />
            </Array>
            <mxPoint x="662.5" y="1164.9299999999998" as="sourcePoint" />
            <mxPoint as="offset" />
          </mxGeometry>
        </mxCell>
      </root>
    </mxGraphModel>
  </diagram>
</mxfile>
